Widespread Panic
Lamda Chi Alpha House  
Auburn, AL.
2/21/1992 

Source: SBD
Transfer: DAT&gt; CD-R&gt; EAC&gt; WAV&gt; Wavelab&gt; CDWave&gt; Flac8   
SBD Remaster By: Michael Wilker mwilker@comcast.net
EDITS: Fixed more than 700 d/o's in disc 1 t06-t10 and
about 150 d/o's in d2t08 & remastered audio in wavelab.
***EDIT 12/09/12 - Files Tagged***

ONE SET/DISC ONE:
01. Fishwater &gt;
02. Travelin' Light
03. Weight Of The World
04. Jack
05. Stop-Go
06. Makes Sense To Me &gt;
07. Mercy* &gt;
08. Flat Foot Flewzy
09. Rock
10. Pigeons &gt;


DISC TWO:
01. Jam &gt;
02. Drums &gt;
03. Jam &gt;
04. Chilly Water
05. Walkin' (For Your Love)
06. Love Tractor
07. Porch Song
Encore:
08. Hatfield
09. Proving Ground**

notes:
*-d1t07 was previuosly reported to have a few d/o's. The d/o's were 
milliseconds in length and occured 2/3 times per second. A few 
background ticks still exist in 'Mercy'.
**-d2t9 is cut @ 4:15

FINGERPRINT:
wsp1992-02-21d101.flac:61b886fe9045d6132079c6106e7a9422
wsp1992-02-21d102.flac:bef18cd084e1b639660e4c44f1d2b523
wsp1992-02-21d103.flac:6db04b38a4890dffdf6e20bb48223764
wsp1992-02-21d104.flac:83debfb633529e439eb89a34c5bacc4e
wsp1992-02-21d105.flac:23e032bd45d13366ccafa06815a73ac1
wsp1992-02-21d106.flac:5a4dec8bb3a5609c911317b19a93e32e
wsp1992-02-21d107.flac:87c766c2ec9ef7a0efdbc862dc4218ad
wsp1992-02-21d108.flac:77dee5dbba1328520f750066be054316
wsp1992-02-21d109.flac:2005385f2e8e7fca8dce0efb21f11734
wsp1992-02-21d110.flac:a5cc81a7632928a3e48807d9d849fa6e
wsp1992-02-21d201.flac:23d5cb0229b7c95f584a2ac031f4abfd
wsp1992-02-21d202.flac:8b5a982f56a93bbbc5f2b4169e7fa385
wsp1992-02-21d203.flac:687ba04c27e10ef0f06924c5891d46d0
wsp1992-02-21d204.flac:07add5d2458fa8dcb5b0816cc06f4daa
wsp1992-02-21d205.flac:47f980853fe194132d43649fe755c939
wsp1992-02-21d206.flac:c8dccd3e367708e6a35160738ca76540
wsp1992-02-21d207.flac:a33926ca4f2e320baf7f9360e3eda77c
wsp1992-02-21d208.flac:e94cb204c691265582e6af6d3160103d
wsp1992-02-21d209.flac:3978ccfd1f2c557500be492c6454a58a

SHNTOOL:
 length     expanded size   cdr  WAVE problems filename
     6:15.15       66185324    ---   --   -----   wsp1992-02-21d101.wav
     6:12.39       65712572    ---   --   -----   wsp1992-02-21d102.wav
     5:53.44       62372732    ---   --   -----   wsp1992-02-21d103.wav
     6:41.45       70842284    ---   --   -----   wsp1992-02-21d104.wav
     7:18.59       77402012    ---   --   -----   wsp1992-02-21d105.wav
     5:24.28       57219500    ---   --   -----   wsp1992-02-21d106.wav
     8:22.63       88701020    ---   --   -----   wsp1992-02-21d107.wav
     5:51.68       62076380    ---   --   -----   wsp1992-02-21d108.wav
     6:43.62       71235068    ---   --   -----   wsp1992-02-21d109.wav
     6:36.46       69962636    ---   --   -----   wsp1992-02-21d110.wav
     2:38.61       28014716    ---   --   -----   wsp1992-02-21d201.wav
     5:15.63       55714220    ---   --   -----   wsp1992-02-21d202.wav
     5:48.59       61526012    ---   --   -----   wsp1992-02-21d203.wav
    10:03.58      106505660    ---   --   -----   wsp1992-02-21d204.wav
     5:32.47       58675388    ---   --   -----   wsp1992-02-21d205.wav
     5:24.01       57155996    ---   --   -----   wsp1992-02-21d206.wav
     4:02.45       42794684    ---   --   -----   wsp1992-02-21d207.wav
     6:30.32       68871308    ---   --   -----   wsp1992-02-21d208.wav
     4:14.70       44970284    ---   --   -----   wsp1992-02-21d209.wav
   114:53.05     1215937796 B                     (totals for 19 files, 1.0000 overall compression ratio)

